swing
nRows=4
nColumns=135

# SIMM Motion File Header:
name swing
datacolumns 135
datarows 4
otherdata 1
range 0.00000000000000000000 0.05000000000000000300
endheader
time	hip_angle_r	knee_angle_r	ankle_angle_r	pelvis_tilt	tib_tx_r	tib_ty_r	pat_angle_r	pat_tx_r	pat_ty_r	subtalar_angle_r	mtp_angle_r	R.ASIS_tx	R.ASIS_ty	R.ASIS_tz	L.ASIS_tx	L.ASIS_ty	L.ASIS_tz	V.Sacral_tx	V.Sacral_ty	V.Sacral_tz	R.Thigh.Upper_tx	R.Thigh.Upper_ty	R.Thigh.Upper_tz	R.Thigh.Front_tx	R.Thigh.Front_ty	R.Thigh.Front_tz	R.Thigh.Rear_tx	R.Thigh.Rear_ty	R.Thigh.Rear_tz	L.Thigh.Upper_tx	L.Thigh.Upper_ty	L.Thigh.Upper_tz	L.Thigh.Front_tx	L.Thigh.Front_ty	L.Thigh.Front_tz	L.Thigh.Rear_tx	L.Thigh.Rear_ty	L.Thigh.Rear_tz	R.Shank.Upper_tx	R.Shank.Upper_ty	R.Shank.Upper_tz	R.Shank.Front_tx	R.Shank.Front_ty	R.Shank.Front_tz	R.Shank.Rear_tx	R.Shank.Rear_ty	R.Shank.Rear_tz	L.Shank.Upper_tx	L.Shank.Upper_ty	L.Shank.Upper_tz	L.Shank.Front_tx	L.Shank.Front_ty	L.Shank.Front_tz	L.Shank.Rear_tx	L.Shank.Rear_ty	L.Shank.Rear_tz	R.Heel_tx	R.Heel_ty	R.Heel_tz	R.Midfoot.Sup_tx	R.Midfoot.Sup_ty	R.Midfoot.Sup_tz	R.Midfoot.Lat_tx	R.Midfoot.Lat_ty	R.Midfoot.Lat_tz	R.Toe.Tip_tx	R.Toe.Tip_ty	R.Toe.Tip_tz	L.Heel_tx	L.Heel_ty	L.Heel_tz	L.Midfoot.Sup_tx	L.Midfoot.Sup_ty	L.Midfoot.Sup_tz	L.Midfoot.Lat_tx	L.Midfoot.Lat_ty	L.Midfoot.Lat_tz	L.Toe.Tip_tx	L.Toe.Tip_ty	L.Toe.Tip_tz	Sternum_tx	Sternum_ty	Sternum_tz	R.Acromium_tx	R.Acromium_ty	R.Acromium_tz	L.Acromium_tx	L.Acromium_ty	L.Acromium_tz	R.Bicep_tx	R.Bicep_ty	R.Bicep_tz	L.Bicep_tx	L.Bicep_ty	L.Bicep_tz	R.Elbow_tx	R.Elbow_ty	R.Elbow_tz	L.Elbow_tx	L.Elbow_ty	L.Elbow_tz	R.Wrist.Med_tx	R.Wrist.Med_ty	R.Wrist.Med_tz	R.Wrist.Lat_tx	R.Wrist.Lat_ty	R.Wrist.Lat_tz	L.Wrist.Med_tx	L.Wrist.Med_ty	L.Wrist.Med_tz	L.Wrist.Lat_tx	L.Wrist.Lat_ty	L.Wrist.Lat_tz	R.Toe.Lat_tx	R.Toe.Lat_ty	R.Toe.Lat_tz	R.Toe.Med_tx	R.Toe.Med_ty	R.Toe.Med_tz	L.Toe.Lat_tx	L.Toe.Lat_ty	L.Toe.Lat_tz	L.Toe.Med_tx	L.Toe.Med_ty	L.Toe.Med_tz	R.Temple_tx	R.Temple_ty	R.Temple_tz	L.Temple_tx	L.Temple_ty	L.Temple_tz	Top.Head_tx	Top.Head_ty	Top.Head_tz
      0.00000000000000000000	      0.74784611937919154000	    -57.41438306883107900000	     -2.89218931697782810000	      0.00000000000000000000	      0.00461735244060792250	     -0.47518156191761762000	     17.33723705045641900000	      0.04357365410766023100	     -0.02301926467633898200	      0.00000000000000000000	      0.00000000000000000000	     -0.02669096899999999800	     -0.03117473629999999900	      0.13231109430000002000	     -0.02669096899999999800	     -0.03117473629999999900	     -0.12837892940000001000	     -0.22626192160000000000	     -0.03117473629999999900	      0.01020350940000000000	     -0.07299109900000000400	     -0.35576139940000001000	      0.19089666470000000000	     -0.00433204180000000030	     -0.42407457279999999000	      0.11235312490000000000	     -0.08272353970000000100	     -0.47840184690000004000	      0.19258931440000002000	     -0.03566724680000000300	     -0.33532367069999997000	     -0.18149524340000001000	      0.06301346680000000100	     -0.35422113940000005000	     -0.12510291190000000000	     -0.01275491210000000000	     -0.44083269660000002000	     -0.16664150580000001000	     -0.19636895879999999000	     -0.59783803590000006000	      0.19222523080000001000	     -0.17213482840000000000	     -0.68304722430000009000	      0.14263561610000000000	     -0.25300259959999999000	     -0.66331797159999994000	      0.19843692630000001000	      0.00620915560000000030	     -0.65224923109999999000	     -0.16346085260000001000	      0.05679938810000000100	     -0.69995769910000005000	     -0.11050771730000000000	     -0.01356489160000000000	     -0.69461763129999998000	     -0.16964464630000001000	     -0.52646780209999999000	     -0.78204307549999996000	      0.11137747960000001000	     -0.45164654710000002000	     -0.90943224899999997000	      0.08985737720000000500	     -0.48403172999999999000	     -0.90849724850000002000	      0.19160610710000001000	     -0.42164185370000001000	     -1.04578741000000000000	      0.13487689520000001000	     -0.07524463489999999600	     -1.01576631899999990000	     -0.06900295660000001200	      0.09314575220000000100	     -1.01940569500000010000	     -0.05235237670000000100	      0.07140856110000000400	     -1.02416103200000010000	     -0.14886328700000001000	      0.20364349620000000000	     -1.04357866199999980000	     -0.09040009649999999900	     -0.00099561370000000003	      0.27669981039999997000	     -0.02708318570000000200	     -0.08425010659999999900	      0.37405647219999999000	      0.18616119589999999000	     -0.08381963120000000800	      0.37926521140000002000	     -0.23402237049999999000	     -0.07402375399999999700	      0.17510675710000001000	      0.23953504680000001000	     -0.07533994370000000900	      0.13911713149999999000	     -0.25796902310000003000	     -0.11410811950000001000	      0.07334184890000000600	      0.27720015860000002000	     -0.13081080610000001000	      0.04521228769999999900	     -0.28850113850000003000	      0.02941124120000000000	     -0.15533701750000001000	      0.26789255530000006000	     -0.00745131540000000020	     -0.16815598390000000000	      0.32118099110000004000	     -0.03624224120000000400	     -0.18872320439999998000	     -0.25125367840000001000	     -0.08755620740000000200	     -0.19622435910000000000	     -0.30609664510000001000	     -0.47825228489999999000	     -0.99981026610000001000	      0.20703772549999999000	     -0.44591508399999996000	     -1.00435957900000020000	      0.10253680690000000000	      0.13317405400000001000	     -1.05071994900000010000	     -0.16154981369999999000	      0.15600008840000001000	     -1.04330319200000020000	     -0.06065711670000000600	      0.07147645079999999400	      0.49885532110000003000	      0.04996759280000000200	      0.07375473729999999800	      0.50221018839999998000	     -0.08962286610000000400	      0.07617119999999999400	      0.67666988590000010000	     -0.01305408200000000000
      0.01666666700000000000	      3.57096459915935900000	    -61.47715716502113300000	     -2.79833990595155150000	      0.00000000000000000000	      0.00490438884917913580	     -0.47641756849789951000	     17.42511593061215100000	      0.04237406336612261500	     -0.02287007426650771200	      0.00000000000000000000	      0.00000000000000000000	     -0.02674934489999999900	     -0.03111218720000000200	      0.13261865549999999000	     -0.02674934489999999900	     -0.03111218720000000200	     -0.12830966750000000000	     -0.22548380130000001000	     -0.03111218720000000200	      0.01225234080000000100	     -0.05880728450000000100	     -0.35724342840000006000	      0.19195070780000001000	      0.01109959380000000000	     -0.42161131660000001000	      0.11288668590000001000	     -0.06343896809999999300	     -0.47784732839999999000	      0.19423643640000002000	     -0.04198890670000000200	     -0.33616760600000001000	     -0.18034159580000000000	      0.05544938020000000200	     -0.35803766549999999000	     -0.12399036070000000000	     -0.02246796660000000000	     -0.44258505030000000000	     -0.16499529810000002000	     -0.17299974679999999000	     -0.59551573610000008000	      0.19185599439999998000	     -0.15070584220000002000	     -0.68256652540000007000	      0.14471096130000002000	     -0.23022933140000001000	     -0.66051035130000002000	      0.20016318659999999000	     -0.00916328100000000060	     -0.65459980099999993000	     -0.16036849160000000000	      0.04110429760000000600	     -0.70308724130000000000	     -0.10855138510000001000	     -0.02973729880000000300	     -0.69698740080000010000	     -0.16713738489999999000	     -0.50627282330000001000	     -0.77176015370000006000	      0.11355660399999999000	     -0.43511568360000002000	     -0.90214848340000009000	      0.09486863280000000500	     -0.46729755550000002000	     -0.89786988840000004000	      0.19639993540000000000	     -0.40813371250000002000	     -1.04171222900000000000	      0.14297015229999999000	     -0.09588268610000000300	     -1.01761767100000000000	     -0.06431870530000000100	      0.07293939439999999600	     -1.02205757400000000000	     -0.04890109189999999900	      0.05008237809999999800	     -1.02697066600000000000	     -0.14524102490000002000	      0.18279482659999999000	     -1.04730569300000000000	     -0.08793562309999999900	     -0.00118471560000000000	      0.27638080770000001000	     -0.02625527500000000200	     -0.08372161710000000600	      0.37427688580000001000	      0.18759405810000002000	     -0.08307878009999999900	      0.37973042590000000000	     -0.23149060339999999000	     -0.07434686010000000900	      0.17484232010000000000	      0.24089071340000001000	     -0.07013249060000000000	      0.13923585800000002000	     -0.25580362600000001000	     -0.11588094940000000000	      0.07448655220000000000	      0.27877861280000005000	     -0.12370351380000000000	      0.04455142790000000300	     -0.28651931600000002000	      0.02126051050000000000	     -0.15846713990000000000	      0.27164784140000003000	     -0.01637805080000000200	     -0.16988188379999999000	      0.32483406609999999000	     -0.02915023120000000100	     -0.18918044540000001000	     -0.24881321030000000000	     -0.07863197920000000700	     -0.19621605690000002000	     -0.30476646310000000000	     -0.46149241569999999000	     -0.98869533700000001000	      0.21500005470000000000	     -0.43149324519999999000	     -0.99672279890000004000	      0.10972016730000000000	      0.11192972910000000000	     -1.05345318900000010000	     -0.15837774139999999000	      0.13572333850000001000	     -1.04643247800000010000	     -0.05751270570000000000	      0.07261268350000001100	      0.49960429420000002000	      0.05013315410000000100	      0.07530186449999999600	      0.50267455039999998000	     -0.08836919360000000700	      0.07621735540000000600	      0.67740337239999993000	     -0.01316927629999999900
      0.03333333300000000000	      5.49131708498144900000	    -63.85990714455566300000	     -2.38501004998285810000	      0.00000000000000000000	      0.00502195431301751420	     -0.47716188850262137000	     17.46231956322138100000	      0.04165470573008447200	     -0.02278503121038951600	      0.00000000000000000000	      0.00000000000000000000	     -0.02688695279999999900	     -0.03103004350000000300	      0.13145755519999999000	     -0.02688695279999999900	     -0.03103004350000000300	     -0.12838141559999999000	     -0.22686362500000001000	     -0.03103004350000000300	      0.01059223380000000200	     -0.05266206100000000300	     -0.35762291360000004000	      0.18881511000000001000	      0.02037079390000000000	     -0.41949048960000002000	      0.10859079140000000000	     -0.05159286199999999600	     -0.48018318409999999000	      0.18864547350000002000	     -0.04826561280000000300	     -0.33560577489999999000	     -0.18281493679999999000	      0.04751492809999999900	     -0.36020356170000001000	     -0.12546629130000000000	     -0.03351605829999999800	     -0.44315017460000000000	     -0.16845209689999999000	     -0.15606589820000000000	     -0.59384853989999997000	      0.18400765210000000000	     -0.13400261889999998000	     -0.68063562320000004000	      0.13591366130000002000	     -0.21585414620000001000	     -0.65677044249999994000	      0.19044604709999999000	     -0.02563160080000000100	     -0.65568378689999995000	     -0.16488342470000000000	      0.02388835370000000000	     -0.70538797289999999000	     -0.11244668700000000000	     -0.04639684410000000100	     -0.69792081319999999000	     -0.17167095820000000000	     -0.49146808310000001000	     -0.76716181959999996000	      0.09904273639999999800	     -0.42008196380000001000	     -0.89758627990000006000	      0.08231475840000000700	     -0.45302499410000002000	     -0.89204662779999999000	      0.18349534490000000000	     -0.39231274919999998000	     -1.03751449600000000000	      0.13240944830000001000	     -0.11877099530000000000	     -1.01889803300000010000	     -0.07153713870000000300	      0.05060121170000000300	     -1.02436848499999990000	     -0.05440125720000000400	      0.02819256520000000200	     -1.02865952700000010000	     -0.15099453210000000000	      0.16030635990000000000	     -1.05044808300000000000	     -0.09265376039999999300	     -0.00096440540000000002	      0.27673639919999998000	     -0.02093930029999999800	     -0.08675511720000000900	      0.37220624450000001000	      0.19223394140000000000	     -0.07882757830000000600	      0.38233155780000000000	     -0.22764340089999999000	     -0.08013521470000001300	      0.17270305870000002000	      0.24364163640000003000	     -0.06276862060000000500	      0.14210365510000000000	     -0.25295996209999999000	     -0.12470341790000000000	      0.07246124450000000800	      0.27959098750000000000	     -0.11479838270000001000	      0.04642071560000000200	     -0.28506916860000003000	      0.00597235180000000010	     -0.16458341690000000000	      0.27385708410000004000	     -0.03261249050000000100	     -0.17489525950000001000	      0.32671875430000002000	     -0.01770472320000000100	     -0.18660018100000000000	     -0.24862732570000001000	     -0.06534608529999999500	     -0.19351080039999999000	     -0.30639529520000003000	     -0.44293535960000002000	     -0.98191881170000006000	      0.20281785260000001000	     -0.41559116270000002000	     -0.99148006570000002000	      0.09838050649999999200	      0.09025597050000000500	     -1.05506957299999990000	     -0.16369064180000001000	      0.11304572030000000000	     -1.04946566600000010000	     -0.06251147230000000900	      0.07268939250000000500	      0.49914436520000000000	      0.05731076949999999700	      0.07631990100000000900	      0.50335999720000002000	     -0.08129216320000000300	      0.07609024630000001100	      0.67720031479999998000	     -0.00411879370000000060
      0.05000000000000000300	      7.85074428451336990000	    -66.17183354068370700000	     -0.96270991251222349000	      0.00000000000000000000	      0.00509986536903468940	     -0.47789649167449438000	     17.48984244674995000000	      0.04094468969406821900	     -0.02270715081030877700	      0.00000000000000000000	      0.00000000000000000000	     -0.02699322960000000200	     -0.03094911700000000200	      0.13158414560000001000	     -0.02699322960000000200	     -0.03094911700000000200	     -0.12901105400000001000	     -0.22615286879999999000	     -0.03094911700000000200	      0.01073303070000000000	     -0.03996183899999999900	     -0.35813415620000000000	      0.18683477720000000000	      0.03344700760000000200	     -0.41584297750000004000	      0.10551032830000000000	     -0.03640024150000000000	     -0.47975841570000000000	      0.18570693430000002000	     -0.05481053920000000100	     -0.33603001490000001000	     -0.18403632100000000000	      0.03931951080000000600	     -0.36407235170000002000	     -0.12585988240000001000	     -0.04386249490000000000	     -0.44428939630000003000	     -0.16900379190000001000	     -0.13713200950000001000	     -0.59128679539999995000	      0.17767373970000000000	     -0.11446899800000000000	     -0.67910250929999993000	      0.13240064670000001000	     -0.19559561880000001000	     -0.65405726580000001000	      0.18454976889999999000	     -0.04211454199999999800	     -0.65773010360000006000	     -0.16705890339999999000	      0.00671313070000000010	     -0.70839983890000002000	     -0.11422619050000000000	     -0.06275037199999999900	     -0.69961649930000003000	     -0.17312275220000001000	     -0.47332875569999999000	     -0.76692907630000007000	      0.09194593740000001100	     -0.39911911620000001000	     -0.89540565760000002000	      0.07626393400000000500	     -0.43145815100000001000	     -0.88929337789999996000	      0.17755959560000001000	     -0.36661517690000001000	     -1.03365984400000000000	      0.12805430930000000000	     -0.13975674530000001000	     -1.02052623800000000000	     -0.07417678560000000300	      0.03039504210000000200	     -1.02674602899999990000	     -0.05674289230000000000	      0.00771320490000000030	     -1.03088114199999990000	     -0.15332003750000001000	      0.13963421420000000000	     -1.05371857500000020000	     -0.09493509170000000200	     -0.00126052530000000010	      0.27590887889999999000	     -0.01740512210000000000	     -0.08768856190000000300	      0.37083393749999999000	      0.19546086320000000000	     -0.07538271640000000800	      0.38358956780000003000	     -0.22390587300000001000	     -0.08288835480000000800	      0.17100627590000000000	      0.24582696690000000000	     -0.05588580549999999600	      0.14369953029999999000	     -0.24994347330000000000	     -0.12955115980000001000	      0.07148652499999999500	      0.28053293769999998000	     -0.10591687760000001000	      0.04796102199999999900	     -0.28412374690000003000	     -0.00485031280000000010	     -0.16855379719999999000	      0.27533210470000002000	     -0.04364382929999999900	     -0.17780813360000000000	      0.32742639550000002000	     -0.00787368440000000070	     -0.18561317220000001000	     -0.24755337470000002000	     -0.05535988119999999500	     -0.19098402219999999000	     -0.30529934630000005000	     -0.41706348420000000000	     -0.97794601079999999000	      0.19778311540000001000	     -0.39125200050000003000	     -0.98846573729999998000	      0.09347462849999999000	      0.06974167760000001000	     -1.05742869300000010000	     -0.16600537969999998000	      0.09210467810000000400	     -1.05266607000000010000	     -0.06496054100000001100	      0.07377979889999999900	      0.49851918550000002000	      0.06174351430000000300	      0.07797656279999999600	      0.50360954759999998000	     -0.07756495339999999700	      0.07848926509999999700	      0.67712122710000011000	      0.00084326630000000006
